<svg width="50" height="50" viewBox="0 0 67 65" fill="none" xmlns="http://www.w3.org/2000/svg">
<path d="M33.1567 -0.00012207C28.8191 -0.00012207 24.524 0.857926 20.5166 2.52503C16.5092 4.19214 12.868 6.63565 9.80087 9.71606C3.60653 15.9372 0.126587 24.3749 0.126587 33.173C0.126587 47.8355 9.60622 60.2754 22.7192 64.6874C24.3707 64.9528 24.8991 63.9245 24.8991 63.0288C24.8991 62.2658 24.8991 60.1759 24.8991 57.4225C15.7498 59.4129 13.801 52.9773 13.801 52.9773C12.2817 49.1293 10.1347 48.1009 10.1347 48.1009C7.12896 46.0442 10.3659 46.1105 10.3659 46.1105C13.6689 46.3427 15.4195 49.5273 15.4195 49.5273C18.2931 54.5696 23.1486 53.0769 25.0313 52.2807C25.3285 50.1245 26.1873 48.6648 27.1122 47.8355C19.7795 47.0062 12.0835 44.1533 12.0835 31.5143C12.0835 27.8321 13.3386 24.8797 15.4856 22.5244C15.1553 21.6951 13.9992 18.2451 15.8159 13.7667C15.8159 13.7667 18.5904 12.871 24.8991 17.1504C27.5085 16.4206 30.3491 16.0557 33.1567 16.0557C35.9642 16.0557 38.8048 16.4206 41.4142 17.1504C47.7229 12.871 50.4975 13.7667 50.4975 13.7667C52.3141 18.2451 51.1581 21.6951 50.8278 22.5244C52.9747 24.8797 54.2298 27.8321 54.2298 31.5143C54.2298 44.1865 46.5008 46.973 39.1351 47.8023C40.3242 48.8307 41.4142 50.8543 41.4142 53.9394C41.4142 58.3846 41.4142 61.9673 41.4142 63.0288C41.4142 63.9245 41.9427 64.986 43.6272 64.6874C56.7401 60.2423 66.1867 47.8355 66.1867 33.173C66.1867 28.8166 65.3324 24.5029 63.6725 20.4782C62.0126 16.4534 59.5796 12.7965 56.5125 9.71606C53.4453 6.63565 49.8041 4.19214 45.7967 2.52503C41.7893 0.857926 37.4942 -0.00012207 33.1567 -0.00012207Z" fill="#9B59B6"/>
</svg>
