<svg width="50" height="50" viewBox="0 0 67 67" fill="none" xmlns="http://www.w3.org/2000/svg">
<path d="M43.4235 -0.00012207H23.143C4.64618 -0.00012207 0.253174 4.39288 0.253174 22.8897V43.1702C0.253174 61.667 4.64618 66.06 23.143 66.06H43.4235C61.9203 66.06 66.3133 61.667 66.3133 43.1702V22.8897C66.3133 4.39288 61.9203 -0.00012207 43.4235 -0.00012207ZM53.5967 47.1338H48.7744C46.9577 47.1338 46.3962 45.6474 43.1923 42.3775C40.2856 39.636 39.0305 39.2396 38.3368 39.2396C37.379 39.2396 37.0817 39.5038 37.0817 40.8911V45.2181C37.0817 46.3741 36.7184 47.1008 33.6466 47.1008C28.5599 47.1008 22.9118 43.9959 18.9482 38.2817C12.9698 29.8921 11.3513 23.5503 11.3513 22.2952C11.3513 21.6015 11.5825 20.9409 12.9698 20.9409H17.8252C19.0473 20.9409 19.5097 21.4694 19.9721 22.7906C22.3503 29.7269 26.3139 35.6724 27.9324 35.6724C28.5599 35.6724 28.8242 35.3751 28.8242 33.8557V26.7542C28.659 23.5173 26.9084 23.22 26.9084 22.064C26.9084 21.4694 27.3709 20.9409 28.1306 20.9409H35.6944C36.7184 20.9409 37.0817 21.4694 37.0817 22.7246V32.2703C37.0817 33.2942 37.5111 33.6575 37.8414 33.6575C38.4359 33.6575 38.9644 33.2942 40.0544 32.1712C43.5226 28.3067 45.9998 22.3282 45.9998 22.3282C46.3301 21.6346 46.8586 20.974 48.1468 20.974H52.8701C54.3234 20.974 54.6537 21.7337 54.3234 22.7576C53.7289 25.5652 47.8495 33.8557 47.9156 33.8557C47.3871 34.6815 47.1889 35.0448 47.9156 36.0027C48.411 36.6963 50.0956 38.1496 51.2186 39.4378C53.2664 41.7829 54.8519 43.7317 55.2813 45.0859C55.6446 46.4402 54.984 47.1338 53.5967 47.1338Z" fill="#D3D3D4"/>
</svg>
