<svg width="50" height="50" viewBox="0 0 67 67"  xmlns="http://www.w3.org/2000/svg">
<path d="M33.5427 -0.00012207C15.4177 -0.00012207 0.645452 14.6983 0.645452 32.7327C0.645452 38.5129 2.17247 44.1281 5.02733 49.0826L0.379883 66.06L17.8078 61.5019C22.6212 64.1113 28.0322 65.4985 33.5427 65.4985C51.6678 65.4985 66.44 50.8001 66.44 32.7657C66.44 24.0127 63.0208 15.7883 56.8132 9.61163C50.6055 3.40198 42.3397 -0.00012207 33.5427 -0.00012207ZM33.5759 5.5159C40.8791 5.5159 47.7175 8.35649 52.896 13.5092C58.0414 18.6619 60.8963 25.4991 60.8963 32.7657C60.8963 47.7614 48.6137 59.9495 33.5427 59.9495C28.6297 59.9495 23.8163 58.6613 19.6336 56.151L18.6377 55.5895L8.28054 58.298L11.0358 48.2568L10.3719 47.1999C7.64982 42.939 6.18919 37.8854 6.18919 32.7327C6.22239 17.737 18.4717 5.5159 33.5759 5.5159ZM21.8909 17.6049C21.3598 17.6049 20.4635 17.8031 19.7 18.6288C18.9697 19.4546 16.8119 21.4694 16.8119 25.4661C16.8119 29.4957 19.7664 33.3603 20.1315 33.9218C20.5963 34.4833 25.974 42.7408 34.2399 46.242C36.1984 47.1338 37.7254 47.6292 38.9205 47.9926C40.8791 48.6202 42.6717 48.5211 44.0991 48.3229C45.6925 48.0917 48.9457 46.3411 49.6428 44.4253C50.3399 42.5096 50.3399 40.8911 50.1408 40.5278C49.9084 40.1975 49.3773 39.9993 48.5474 39.636C47.7175 39.1735 43.6675 37.1917 42.9372 36.9275C42.1737 36.6633 41.709 36.5311 41.0782 37.3239C40.5471 38.1496 38.9537 39.9993 38.4889 40.5278C37.991 41.0893 37.5263 41.1554 36.7296 40.759C35.8665 40.3296 33.2108 39.4708 30.0903 36.6963C27.6338 34.5163 26.0072 31.8409 25.5093 31.0151C25.1109 30.2224 25.4761 29.7269 25.8745 29.3636C26.2396 29.0003 26.7707 28.4057 27.1027 27.9103C27.5343 27.4479 27.667 27.0845 27.9326 26.5561C28.1982 25.9945 28.0654 25.5321 27.8662 25.1358C27.667 24.7724 26.0072 20.6767 25.3101 19.0582C24.6462 17.4728 23.9823 17.671 23.4511 17.6379C22.9864 17.6379 22.4553 17.6049 21.8909 17.6049Z" fill="#D3D3D4" />
</svg>
