<svg width="27" height="27" viewBox="0 0 27 27" fill="none" xmlns="http://www.w3.org/2000/svg">
<path d="M26.9996 1.36739C26.9855 1.24318 26.9583 1.12081 26.9185 1.00232V0.880636C26.8538 0.730159 26.7622 0.592717 26.6483 0.475008C26.5337 0.367199 26.4011 0.280261 26.2566 0.218111H26.135C26.0106 0.122938 25.8681 0.0539501 25.7163 0.0152976H25.6488C25.5144 -0.00509919 25.3778 -0.00509919 25.2435 0.0152976L0.929016 8.12785C0.658763 8.21676 0.423452 8.3888 0.256632 8.61945C0.0898123 8.8501 0 9.12758 0 9.41233C0 9.69708 0.0898123 9.97456 0.256632 10.2052C0.423452 10.4359 0.658763 10.6079 0.929016 10.6968L12.4514 14.5368L16.2877 26.0701C16.3765 26.3406 16.5484 26.5761 16.7788 26.7431C17.0092 26.9101 17.2865 27 17.5709 27C17.8554 27 18.1326 26.9101 18.3631 26.7431C18.5935 26.5761 18.7654 26.3406 18.8542 26.0701L26.959 1.73245C26.9891 1.61318 27.0027 1.49036 26.9996 1.36739ZM20.6508 4.46368L13.1268 11.9948L5.6028 9.47994L20.6508 4.46368ZM17.5439 21.4324L15.0314 13.9013L22.5554 6.37013L17.5439 21.4324Z" fill="#D3D3D4"/>
</svg>
