<svg width="218" height="196" viewBox="0 0 218 196" fill="none" xmlns="http://www.w3.org/2000/svg">
<path d="M109 0C49.05 0 0 39.2 0 87.1111C0 109.978 10.9 131.756 30.52 147C30.52 153.533 26.16 170.956 0 196C0 196 38.15 196 70.85 168.778C82.84 172.044 95.92 174.222 109 174.222C168.95 174.222 218 135.022 218 87.1111C218 39.2 168.95 0 109 0ZM119.9 130.667H98.1V108.889H119.9V130.667ZM139.52 76.2222C136.25 80.5778 131.89 82.7556 127.53 84.9333C124.26 87.1111 123.17 88.2 122.08 90.3778C119.9 92.5556 119.9 94.7333 119.9 98H98.1C98.1 92.5556 99.19 89.2889 101.37 86.0222C103.55 83.8444 107.91 80.5778 113.36 77.3111C116.63 76.2222 118.81 74.0444 119.9 71.8667C120.99 69.6889 122.08 66.4222 122.08 64.2444C122.08 60.9778 120.99 58.8 118.81 56.6222C116.63 54.4444 113.36 53.3556 110.09 53.3556C106.82 53.3556 104.64 54.4445 102.46 55.5333C100.28 56.6222 99.19 58.8 99.19 62.0667H77.39C78.48 54.4444 81.75 47.9111 87.2 43.5556C92.65 39.2 100.28 38.1111 110.09 38.1111C119.9 38.1111 128.62 40.2889 134.07 44.6444C139.52 49 142.79 55.5333 142.79 63.1556C143.88 67.5111 142.79 71.8667 139.52 76.2222Z" fill="white"/>
</svg>
